<?xml version="1.0" encoding="UTF-8"?>
<svg xmlns="http://www.w3.org/2000/svg" xmlns:xlink="http://www.w3.org/1999/xlink" viewBox="0 0 20 20" width="20px" height="20px">
<g id="surface55846911">
<path style=" stroke:none;fill-rule:nonzero;fill:rgb(80.000001%,80.000001%,80.000001%);fill-opacity:1;" d="M 2 4.667969 C 1.757812 4.664062 1.535156 4.789062 1.414062 4.996094 C 1.292969 5.203125 1.292969 5.460938 1.414062 5.667969 C 1.535156 5.878906 1.757812 6.003906 2 6 L 18 6 C 18.242188 6.003906 18.464844 5.878906 18.585938 5.667969 C 18.707031 5.460938 18.707031 5.203125 18.585938 4.996094 C 18.464844 4.789062 18.242188 4.664062 18 4.667969 Z M 2 9.332031 C 1.757812 9.328125 1.535156 9.457031 1.414062 9.664062 C 1.292969 9.871094 1.292969 10.128906 1.414062 10.335938 C 1.535156 10.542969 1.757812 10.671875 2 10.667969 L 18 10.667969 C 18.242188 10.671875 18.464844 10.542969 18.585938 10.335938 C 18.707031 10.128906 18.707031 9.871094 18.585938 9.664062 C 18.464844 9.457031 18.242188 9.328125 18 9.332031 Z M 2 14 C 1.757812 13.996094 1.535156 14.121094 1.414062 14.332031 C 1.292969 14.539062 1.292969 14.796875 1.414062 15.003906 C 1.535156 15.210938 1.757812 15.335938 2 15.332031 L 18 15.332031 C 18.242188 15.335938 18.464844 15.210938 18.585938 15.003906 C 18.707031 14.796875 18.707031 14.539062 18.585938 14.332031 C 18.464844 14.121094 18.242188 13.996094 18 14 Z M 2 14 "/>
</g>
</svg>
