<?xml version="1.0" encoding="UTF-8"?>
<svg xmlns="http://www.w3.org/2000/svg" xmlns:xlink="http://www.w3.org/1999/xlink" viewBox="0 0 20 20" width="20px" height="20px">
<g id="surface14900712">
<path style="fill-rule:nonzero;fill:rgb(0%,0%,0%);fill-opacity:1;stroke-width:1;stroke-linecap:butt;stroke-linejoin:round;stroke:rgb(80.000001%,80.000001%,80.000001%);stroke-opacity:1;stroke-miterlimit:10;" d="M 131.861888 74.542975 C 131.861888 88.264366 126.995188 100.904268 118.884021 110.772854 L 153.119904 145.008737 C 154.606952 146.461988 155.215289 148.591169 154.708341 150.585165 C 154.167597 152.612956 152.612956 154.167597 150.585165 154.708341 C 148.591169 155.215289 146.461988 154.606952 145.008737 153.119904 L 110.772854 118.884021 C 100.904268 126.995188 88.264366 131.861888 74.542975 131.861888 C 42.943221 131.861888 17.190266 106.14273 17.190266 74.542975 C 17.190266 42.943221 42.943221 17.190266 74.542975 17.190266 C 106.14273 17.190266 131.861888 42.943221 131.861888 74.542975 Z M 28.681086 74.542975 C 28.681086 99.924168 49.127986 120.404865 74.542975 120.404865 C 99.924168 120.404865 120.404865 99.924168 120.404865 74.542975 C 120.404865 49.127986 99.924168 28.681086 74.542975 28.681086 C 49.127986 28.681086 28.681086 49.127986 28.681086 74.542975 Z M 28.681086 74.542975 " transform="matrix(0.115581,0,0,0.115581,0.06,0.06)"/>
<path style=" stroke:none;fill-rule:nonzero;fill:rgb(0%,0%,0%);fill-opacity:1;" d="M 8.675781 2.046875 C 5.023438 2.046875 2.046875 5.023438 2.046875 8.675781 C 2.046875 12.328125 5.023438 15.300781 8.675781 15.300781 C 10.261719 15.300781 11.722656 14.738281 12.863281 13.800781 L 16.820312 17.757812 C 16.988281 17.929688 17.234375 18 17.464844 17.941406 C 17.699219 17.878906 17.878906 17.699219 17.941406 17.464844 C 18 17.234375 17.929688 16.988281 17.757812 16.820312 L 13.800781 12.863281 C 14.738281 11.722656 15.300781 10.261719 15.300781 8.675781 C 15.300781 5.023438 12.328125 2.046875 8.675781 2.046875 Z M 8.675781 3.375 C 11.609375 3.375 13.976562 5.738281 13.976562 8.675781 C 13.976562 11.609375 11.609375 13.976562 8.675781 13.976562 C 5.738281 13.976562 3.375 11.609375 3.375 8.675781 C 3.375 5.738281 5.738281 3.375 8.675781 3.375 Z M 8.675781 3.375 "/>
</g>
</svg>
