<?xml version="1.0" encoding="UTF-8"?>
<svg xmlns="http://www.w3.org/2000/svg" xmlns:xlink="http://www.w3.org/1999/xlink" viewBox="0 0 20 20" width="20px" height="20px">
<g id="surface15007301">
<path style="fill-rule:nonzero;fill:rgb(80.000001%,80.000001%,80.000001%);fill-opacity:1;stroke-width:10;stroke-linecap:butt;stroke-linejoin:round;stroke:rgb(80.000001%,80.000001%,80.000001%);stroke-opacity:1;stroke-miterlimit:10;" d="M 173.254729 97.947865 C 173.254729 116.001197 166.836792 132.577018 156.217186 145.551407 L 201.188912 190.523133 C 203.174316 192.416193 203.959244 195.232697 203.266661 197.864513 C 202.574078 200.496329 200.496329 202.574078 197.864513 203.266661 C 195.232697 203.959244 192.416193 203.174316 190.523133 201.188912 L 145.551407 156.217186 C 132.577018 166.836792 116.001197 173.254729 97.947865 173.254729 C 56.439054 173.254729 22.594829 139.456676 22.594829 97.947865 C 22.594829 56.439054 56.439054 22.594829 97.947865 22.594829 C 139.456676 22.594829 173.254729 56.439054 173.254729 97.947865 Z M 37.646968 97.947865 C 37.646968 131.284196 64.565362 158.20259 97.947865 158.20259 C 131.284196 158.20259 158.20259 131.284196 158.20259 97.947865 C 158.20259 64.565362 131.284196 37.646968 97.947865 37.646968 C 64.565362 37.646968 37.646968 64.565362 37.646968 97.947865 Z M 37.646968 97.947865 " transform="matrix(0.0846018,0,0,0.0846018,0.44,0.44)"/>
<path style=" stroke:none;fill-rule:nonzero;fill:rgb(80.000001%,80.000001%,80.000001%);fill-opacity:1;" d="M 8.726562 2.351562 C 5.214844 2.351562 2.351562 5.214844 2.351562 8.726562 C 2.351562 12.238281 5.214844 15.097656 8.726562 15.097656 C 10.253906 15.097656 11.65625 14.554688 12.753906 13.65625 L 16.558594 17.460938 C 16.71875 17.628906 16.957031 17.695312 17.179688 17.636719 C 17.402344 17.578125 17.578125 17.402344 17.636719 17.179688 C 17.695312 16.957031 17.628906 16.71875 17.460938 16.558594 L 13.65625 12.753906 C 14.554688 11.65625 15.097656 10.253906 15.097656 8.726562 C 15.097656 5.214844 12.238281 2.351562 8.726562 2.351562 Z M 8.726562 3.625 C 11.546875 3.625 13.824219 5.902344 13.824219 8.726562 C 13.824219 11.546875 11.546875 13.824219 8.726562 13.824219 C 5.902344 13.824219 3.625 11.546875 3.625 8.726562 C 3.625 5.902344 5.902344 3.625 8.726562 3.625 Z M 8.726562 3.625 "/>
</g>
</svg>
